<?xml version="1.0" encoding="UTF-8"?>
<svg xmlns="http://www.w3.org/2000/svg" id="Ebene_1" data-name="Ebene 1" viewBox="0 0 296.09 100.1">
  <defs>
    <style>.cls-1{fill:#fff;}.cls-2{fill:#c6c6c6;}.cls-3{fill:#ffd500;}.cls-4{fill:#1d1d1b;}</style>
  </defs>
  <rect class="cls-1" width="296.09" height="100.1"></rect>
  <rect class="cls-2" x="198.15" y="14.62" width="83.32" height="70.87"></rect>
  <rect class="cls-3" x="226.65" y="18.27" width="51.18" height="51.33"></rect>
  <path class="cls-4" d="M256.52,62.89V55.45h-3.71v6.89a2.43,2.43,0,0,1-2.38,2.72c-1.41,0-2.39-1-2.39-2.72V55.45h-3.68v7.44a6.09,6.09,0,0,0,12.16,0"></path>
  <polygon class="cls-4" points="268.63 68.55 269.75 68.55 269.75 55.44 266.09 55.44 266.09 61.28 259.37 55.2 258.33 55.2 258.32 68.38 262 68.38 262 62.54 268.63 68.55"></polygon>
  <rect class="cls-4" x="271.74" y="55.45" width="3.68" height="12.93"></rect>
  <rect class="cls-4" x="226.65" y="69.6" width="51.18" height="12.23"></rect>
  <rect class="cls-1" x="201.81" y="18.27" width="24.84" height="63.56"></rect>
  <polygon class="cls-3" points="275.42 78.13 269.16 78.13 269.16 77.55 272.42 72.4 269.21 72.4 269.21 70.63 275.42 70.63 275.42 71.06 272.02 76.36 275.42 76.36 275.42 78.13"></polygon>
  <path class="cls-3" d="M263.68,75.29l.84-2,.82,2ZM257,74.18H255.7V72.4H257c.8,0,1,.4,1,.88s-.24.9-1,.9m7.82-3.62h-.49l-3.89,7.36-1.78-2.52A2.11,2.11,0,0,0,260,73.28a2.62,2.62,0,0,0-2.78-2.65h-3.58v7.5h2.09V76h1.13l1.45,2.18h4.23l.62-1.3h2.77l.62,1.3h2.18Z"></path>
  <path class="cls-3" d="M252.15,74.68a3.93,3.93,0,0,1-.33,1.78,4,4,0,0,1-7.38-2.07,4,4,0,0,1,7.12-2.3L250,73.17a1.87,1.87,0,0,0-1.62-.86,2,2,0,0,0-2,2.08,1.94,1.94,0,0,0,2.07,2c1.07,0,1.66-.44,1.8-1H249V74.06h3.18Z"></path>
  <path class="cls-4" d="M173.75,35.82h10V34.64h-8.38L183.53,23V21.94h-9.66v1.18h8L173.75,34.8ZM169.1,31h-6.37L166,23.35Zm-9.8,4.86h1.35l1.57-3.69h7.35l1.51,3.69h1.45l-5.84-13.88h-1.33Zm-10,0h1.29V29.23H153l3.9,6.59h1.47l-4-6.67c1.53-.19,3.55-.92,3.55-3.56,0-3.65-3.84-3.65-4.94-3.65h-3.64Zm1.29-12.7h2.74c2.73,0,3.26,1.51,3.26,2.47s-.53,2.47-3.26,2.47H150.6Zm-3.94,5.21H142v1.18h3.33v4.66a7.54,7.54,0,0,1-3.88.82c-3.63,0-5.88-2.66-5.88-6.11s2.25-6.11,5.88-6.11a5.63,5.63,0,0,1,4.06,1.72l.94-1a6.71,6.71,0,0,0-5-1.92,7,7,0,0,0-7.17,7.29,7,7,0,0,0,7.17,7.29,10.1,10.1,0,0,0,5.17-1.26ZM122,35.82h1.3V23.12H128V21.94H117.21v1.18H122Zm-9.13-16.46a.94.94,0,1,0,.94-.94.93.93,0,0,0-.94.94m-3.72,0a.94.94,0,1,0,.94-.94.93.93,0,0,0-.94.94m6,11.6h-6.37l3.23-7.61Zm-9.8,4.86h1.35l1.57-3.69h7.35l1.51,3.69h1.45l-5.84-13.88h-1.34Zm-4.73,0h1.29V23.12h4.74V21.94H95.81v1.18h4.74Zm-8,0h1.29V21.94H92.54Zm-11.4-1.75a5.22,5.22,0,0,0,4.51,2.1c2.25,0,4.31-1.39,4.31-3.9,0-5.21-7.15-2.7-7.15-6.88,0-1.76,1.45-2.62,3.11-2.62a3.12,3.12,0,0,1,2.71,1.37l1.11-.81A4.51,4.51,0,0,0,86,21.59c-2.33,0-4.45,1.33-4.45,3.8,0,5.27,7.16,3,7.16,6.88A2.83,2.83,0,0,1,85.55,35a3.48,3.48,0,0,1-3.17-1.74ZM70.72,35.82H72V29.23h2.41l3.9,6.59h1.47l-4-6.67c1.53-.19,3.55-.92,3.55-3.56,0-3.65-3.84-3.65-4.94-3.65H70.72ZM72,23.12h2.74c2.73,0,3.25,1.51,3.25,2.47s-.52,2.47-3.25,2.47H72ZM59.58,35.82h8.8V34.64h-7.5V29.23h6.74V28.06H60.88V23.12h7.19V21.94H59.58Zm-8.42,0h1.29l5.27-13.88H56.35l-4.5,12.17L47.38,21.94H46Zm-8.31,0h1.3V21.94h-1.3Zm-14.91,0h1.29V23.67h0l8.45,12.15h1.66V21.94H38.09V34.09h0L29.61,21.94H27.94ZM24.73,21.94h-1.3v8.23c0,2-.52,4.82-3.76,4.82s-3.76-2.84-3.76-4.82V21.94H14.62v8.57c0,2.95,1.27,5.66,5.05,5.66s5.06-2.71,5.06-5.66Z"></path>
</svg>
